<?xml version="1.0" encoding="UTF-8"?>
<!DOCTYPE svg PUBLIC "-//W3C//DTD SVG 1.1//EN" "http://www.w3.org/Graphics/SVG/1.1/DTD/svg11.dtd">
<!-- Creator: CorelDRAW X8 -->
<svg xmlns="http://www.w3.org/2000/svg" xml:space="preserve" width="210mm" height="297mm" version="1.1" style="shape-rendering:geometricPrecision; text-rendering:geometricPrecision; image-rendering:optimizeQuality; fill-rule:evenodd; clip-rule:evenodd"
viewBox="0 0 21000 29700"
 xmlns:xlink="http://www.w3.org/1999/xlink"
 aria-hidden="true"
 focusable="false"
 data-prefix="fas"
 data-icon="external-link-alt"
 role="img">
 <defs>
  <style type="text/css">
   <![CDATA[
    .fil2 {fill:#00A196}
    .fil0 {fill:#D3B35F}
    .fil3 {fill:#FEFEFE}
    .fil1 {fill:#FFDC81}
   ]]>
  </style>
 </defs>
 <g id="Capa_x0020_1">
  <metadata id="CorelCorpID_0Corel-Layer"/>
  <path class="fil0" d="M20004 1413l-5250 -1c-876,0 -1315,1063 -697,1682l1465 1465 -9997 9993c-186,184 -290,435 -290,697 0,262 104,513 289,697l930 928c185,186 436,290 697,290 262,0 513,-104 698,-289l9992 -9994 1465 1463c615,615 1682,185 1682,-697l0 -5250c0,-544 -440,-984 -984,-984l0 0z"/>
  <path class="fil1" d="M12713 8441l0 -7591 -11400 0c-728,0 -1313,585 -1313,1313l0 25375c0,727 585,1312 1313,1312l18375 0c727,0 1312,-585 1312,-1312l0 -17785 -6974 0c-722,0 -1313,-591 -1313,-1312z"/>
  <path class="fil2" d="M20004 891l-5250 -1c-876,0 -1315,1063 -697,1682l1465 1465 -7140 7135c-186,185 -290,436 -290,697 0,262 105,513 290,698l929 928c185,185 436,289 698,289 261,1 512,-104 697,-289l7135 -7136 1465 1463c615,616 1682,185 1682,-697l0 -5250c0,-543 -440,-984 -984,-984l0 0z"/>
  <path class="fil3" d="M12011 19321c0,325 -295,591 -656,591l-5449 0c-361,0 -656,-266 -656,-591l0 -393c0,-325 295,-591 656,-591l5449 0c361,0 656,266 656,591l0 393z"/>
  <path class="fil3" d="M15750 22471c0,325 -295,591 -656,591l-9188 0c-361,0 -656,-266 -656,-591l0 -393c0,-325 295,-591 656,-591l9188 0c361,0 656,266 656,591l0 393z"/>
 </g>
</svg>
