<?xml version="1.0" encoding="UTF-8"?>
<!DOCTYPE svg PUBLIC "-//W3C//DTD SVG 1.1//EN" "http://www.w3.org/Graphics/SVG/1.1/DTD/svg11.dtd">
<!-- Creator: CorelDRAW X8 -->
<svg xmlns="http://www.w3.org/2000/svg" xml:space="preserve" width="210mm" height="297mm" version="1.1" style="shape-rendering:geometricPrecision; text-rendering:geometricPrecision; image-rendering:optimizeQuality; fill-rule:evenodd; clip-rule:evenodd"
viewBox="0 0 21000 29700"
 xmlns:xlink="http://www.w3.org/1999/xlink">
 <defs>
  <style type="text/css">
   <![CDATA[
    .fil0 {fill:none}
    .fil6 {fill:#008277}
    .fil5 {fill:#00A196}
    .fil4 {fill:#C4C6CA}
    .fil2 {fill:#D3B35F}
    .fil3 {fill:#FEFEFE}
    .fil1 {fill:#FFDC81}
   ]]>
  </style>
 </defs>
 <g id="Capa_x0020_1">
  <metadata id="CorelCorpID_0Corel-Layer"/>
  <rect class="fil0" width="21000" height="29700"/>
  <path class="fil1" d="M12250 8288l0 -7438 -10937 0c-728,0 -1313,585 -1313,1313l0 25375c0,727 585,1312 1313,1312l18375 0c727,0 1312,-585 1312,-1312l0 -17938 -7437 0c-722,0 -1313,-591 -1313,-1312z"/>
  <path class="fil2" d="M21000 7968l0 356 -7474 0 0 -7474 356 0c373,0 730,146 992,409l5717 5722c263,263 409,619 409,987z"/>
  <path class="fil3" d="M9291 21324c0,325 -295,591 -656,591l-4594 0c-361,0 -656,-266 -656,-591l0 -393c0,-325 295,-591 656,-591l4594 0c361,0 656,266 656,591l0 393z"/>
  <path class="fil3" d="M13419 17427c0,325 -295,591 -656,591l-8722 0c-361,0 -656,-266 -656,-591l0 -393c0,-325 295,-591 656,-591l8722 0c361,0 656,266 656,591l0 393z"/>
  <path class="fil3" d="M7034 13704c0,325 -295,591 -656,591l-2337 0c-361,0 -656,-266 -656,-591l0 -393c0,-325 295,-591 656,-591l2337 0c361,0 656,266 656,591l0 393z"/>
 </g>
 <g id="Capa_x0020_1_0">
  <metadata id="CorelCorpID_1Corel-Layer"/>
  <path class="fil4" d="M20089 12717l-1162 -1162c-363,-363 -951,-363 -1313,0l-994 993 2475 2475 994 -994c363,-362 363,-950 0,-1312z"/>
  <polygon class="fil5" points="10684,18441 10684,20957 13200,20957 19094,15023 16620,12548 "/>
  <path class="fil6" d="M17129 17002l1965 -1979 -2474 -2475c1363,1363 1296,3168 509,4454z"/>
 </g>
</svg>
