<?xml version="1.0" encoding="UTF-8"?>
<!DOCTYPE svg PUBLIC "-//W3C//DTD SVG 1.1//EN" "http://www.w3.org/Graphics/SVG/1.1/DTD/svg11.dtd">
<!-- Creator: CorelDRAW X8 -->
<svg xmlns="http://www.w3.org/2000/svg" xml:space="preserve" width="210mm" height="297mm" version="1.1" style="shape-rendering:geometricPrecision; text-rendering:geometricPrecision; image-rendering:optimizeQuality; fill-rule:evenodd; clip-rule:evenodd"
viewBox="0 0 21000 29700"
 xmlns:xlink="http://www.w3.org/1999/xlink">
 <defs>
  <style type="text/css">
   <![CDATA[
    .fil0 {fill:none}
    .fil2 {fill:#D3B35F}
    .fil3 {fill:#FEFEFE}
    .fil1 {fill:#FFDC81}
   ]]>
  </style>
 </defs>
 <g id="Capa_x0020_1">
  <metadata id="CorelCorpID_0Corel-Layer"/>
  <rect class="fil0" width="21000" height="29700"/>
 </g>
 <g id="Capa_x0020_1_0">
  <metadata id="CorelCorpID_1Corel-Layer"/>
  <g id="_2759609914752">
   <path class="fil1" d="M12250 8288l0 -7438 -10937 0c-728,0 -1313,585 -1313,1313l0 25375c0,727 585,1312 1313,1312l18375 0c727,0 1312,-585 1312,-1312l0 -17938 -7437 0c-722,0 -1313,-591 -1313,-1312z"/>
   <path class="fil2" d="M21000 7968l0 356 -7474 0 0 -7474 356 0c373,0 730,146 992,409l5717 5722c263,263 409,619 409,987z"/>
   <path class="fil3" d="M15750 13691l0 393c0,325 -295,591 -656,591l-9188 0c-361,0 -656,-266 -656,-591l0 -393c0,-325 295,-591 656,-591l9188 0c361,0 656,266 656,591z"/>
   <path class="fil3" d="M15750 17234c0,325 -295,591 -656,591l-9188 0c-361,0 -656,-266 -656,-591l0 -393c0,-325 295,-591 656,-591l9188 0c361,0 656,266 656,591l0 393z"/>
   <path class="fil3" d="M15750 20384c0,325 -295,591 -656,591l-9188 0c-361,0 -656,-266 -656,-591l0 -393c0,-325 295,-591 656,-591l9188 0c361,0 656,266 656,591l0 393z"/>
  </g>
 </g>
</svg>
