<?xml version="1.0" encoding="UTF-8"?>
<!DOCTYPE svg PUBLIC "-//W3C//DTD SVG 1.1//EN" "http://www.w3.org/Graphics/SVG/1.1/DTD/svg11.dtd">
<!-- Creator: CorelDRAW X8 -->
<svg xmlns="http://www.w3.org/2000/svg" xml:space="preserve" width="210mm" height="297mm" version="1.1" style="shape-rendering:geometricPrecision; text-rendering:geometricPrecision; image-rendering:optimizeQuality; fill-rule:evenodd; clip-rule:evenodd"
viewBox="0 0 21000 29700"
 xmlns:xlink="http://www.w3.org/1999/xlink">
 <defs>
  <style type="text/css">
   <![CDATA[
    .fil0 {fill:none}
    .fil1 {fill:#00A196}
    .fil2 {fill:#D3B35F}
    .fil3 {fill:#FFDC81}
   ]]>
  </style>
 </defs>
 <g id="Capa_x0020_1">
  <metadata id="CorelCorpID_0Corel-Layer"/>
  <rect class="fil0" width="21000" height="29700"/>
 </g>
 <g id="Capa_x0020_1_0">
  <metadata id="CorelCorpID_1Corel-Layer"/>
  <path class="fil1" d="M20040 10041c-229,-863 -904,-1542 -1760,-1772 -1553,-419 -7779,-419 -7779,-419 0,0 -6227,0 -7780,419 -856,230 -1531,909 -1760,1772 -416,1562 -416,4823 -416,4823 0,0 0,3261 416,4824 229,862 904,1513 1760,1743 1553,419 7780,419 7780,419 0,0 6226,0 7779,-419 856,-230 1531,-881 1760,-1743 416,-1563 416,-4824 416,-4824 0,0 0,-3261 -416,-4823l0 0zm-11576 7784l0 -5921 5204 2960 -5204 2961z"/>
  <polygon class="fil2" points="13668,14864 8464,11904 8464,17825 "/>
  <polygon class="fil3" points="12891,14864 8464,11904 8464,17825 "/>
 </g>
</svg>
